<svg xmlns="http://www.w3.org/2000/svg" viewBox="0 0 512 496" width="512" height="496">
	<style>
		tspan { white-space:pre }
		.shp0 { fill: #f0bf5f } 
		.shp1 { fill: #cee8fa } 
		.shp2 { fill: #2d527c } 
	</style>
	<g id="Layer">
		<path id="Layer" class="shp0" d="M121.3 459.9L86.8 459.9C79.1 459.9 72.9 453.7 72.9 446C72.9 438.3 79.1 432.1 86.8 432.1L121.3 432.1C129 432.1 135.2 438.3 135.2 446C135.2 453.7 129 459.9 121.3 459.9Z" />
		<path id="Layer" class="shp0" d="M498.1 459.9L461.5 459.9C453.8 459.9 447.6 453.7 447.6 446C447.6 438.3 453.8 432.1 461.5 432.1L498.1 432.1C505.8 432.1 512 438.3 512 446C512 453.7 505.8 459.9 498.1 459.9Z" />
		<path id="Layer" class="shp0" d="M482.8 458.2L461.5 458.2C453.8 458.2 447.6 452 447.6 444.3C447.6 436.6 453.8 430.4 461.5 430.4L468.9 430.4L468.9 424.3C468.9 395.9 456.8 373 433.9 358C417.2 347.1 396 341.3 372.6 341.3L169.9 341.3C151.4 341.3 135.2 354.4 131.4 372.6L119.2 430.4L123.4 430.4C131.1 430.4 137.3 436.6 137.3 444.3C137.3 452 131.1 458.2 123.4 458.2L102.1 458.2C97.9 458.2 93.9 456.3 91.3 453.1C88.7 449.8 87.6 445.6 88.5 441.5L104.2 366.9C110.7 336 138.4 313.5 170 313.5L372.7 313.5C401.5 313.5 428 320.8 449.2 334.7C479.9 354.8 496.8 386.6 496.8 424.3L496.8 444.3C496.7 452 490.5 458.2 482.8 458.2Z" />
		<path id="Layer" class="shp0" d="M325.5 458.2L219.4 458.2C211.7 458.2 205.5 452 205.5 444.3C205.5 436.6 211.7 430.4 219.4 430.4L325.6 430.4C333.3 430.4 339.5 436.6 339.5 444.3C339.5 452 333.2 458.2 325.5 458.2Z" />
	</g>
	<path id="Layer" class="shp1" d="M372.6 327.4C393.6 327.4 413.3 331.7 430 339.9L410.5 255.4C405.1 234.8 386.4 220.4 365.1 220.4L241.2 220.4C222.2 220.4 205.1 231.8 197.9 249.4L168.8 327.4L372.6 327.4L372.6 327.4Z" />
	<g id="Layer">
		<path id="Layer" fill-rule="evenodd" class="shp0" d="M430 353.8C427.9 353.8 425.8 353.3 423.9 352.4C409.1 345.2 391.3 341.3 372.6 341.3L168.8 341.3C164.2 341.3 160 339.1 157.4 335.3C154.8 331.6 154.2 326.8 155.8 322.5L184.9 244.5C185 244.3 185 244.2 185.1 244C194.5 221.2 216.6 206.4 241.3 206.4L365.2 206.4C392.8 206.4 417 225 424 251.7C424 251.8 424.1 252 424.1 252.1L443.6 336.6C444.8 341.8 442.9 347.3 438.7 350.6C436.2 352.8 433.1 353.8 430 353.8ZM188.9 313.5L372.7 313.5C385.9 313.5 398.7 315.1 410.8 318.2L397.1 258.8C393.2 244.4 380.1 234.4 365.2 234.4L241.2 234.4C227.9 234.4 216 242.3 210.8 254.6L188.9 313.5Z" />
		<path id="Layer" class="shp0" d="M325.5 399.8C317.8 399.8 311.6 393.6 311.6 385.9L311.6 225.7C311.6 218 317.8 211.8 325.5 211.8C333.2 211.8 339.4 218 339.4 225.7L339.4 385.8C339.4 393.6 333.2 399.8 325.5 399.8Z" />
	</g>
	<path id="Layer" fill-rule="evenodd" class="shp2" d="M422.5 495.2C392.1 495.2 367.4 470.5 367.4 440.1C367.4 409.7 392.1 385 422.5 385C452.9 385 477.6 409.7 477.6 440.1C477.6 470.5 452.9 495.2 422.5 495.2ZM422.5 412.8C407.5 412.8 395.2 425 395.2 440.1C395.2 455.2 407.4 467.4 422.5 467.4C437.5 467.4 449.8 455.2 449.8 440.1C449.8 425 437.5 412.8 422.5 412.8Z" />
	<g id="Layer">
		<path id="Layer" fill-rule="evenodd" class="shp2" d="M161.7 495.2C131.3 495.2 106.6 470.5 106.6 440.1C106.6 409.7 131.3 385 161.7 385C192.1 385 216.8 409.7 216.8 440.1C216.9 470.5 192.1 495.2 161.7 495.2ZM161.7 412.8C146.6 412.8 134.4 425 134.4 440.1C134.4 455.2 146.6 467.4 161.7 467.4C176.8 467.4 189 455.2 189 440.1C189 425 176.8 412.8 161.7 412.8Z" />
		<path id="Layer" fill-rule="evenodd" class="shp2" d="M189.2 191.5L13.9 191.5C6.2 191.5 0 185.3 0 177.6L0 14.7C0 7 6.2 0.8 13.9 0.8L189.2 0.8C196.9 0.8 203.1 7 203.1 14.7L203.1 177.6C203.1 185.3 196.9 191.5 189.2 191.5ZM27.8 163.7L175.3 163.7L175.3 28.6L27.8 28.6L27.8 163.7Z" />
		<path id="Layer" fill-rule="evenodd" class="shp2" d="M135 79.3L135 79.9C135 99.7 123 111 102.1 111L91.8 111L91.8 135.9C91.8 140.7 87 144 80 144C73.1 144 68.2 140.7 68.2 135.9L68.2 56.3C68.2 51.7 72.2 48.3 77.5 48.3L103.4 48.3C123.8 48.3 135 59.3 135 79.3ZM111.3 81.3L111.3 79.9C111.3 72.9 108.3 69.5 102.1 69.5L91.8 69.5L91.8 91.7L102.1 91.7C108.3 91.7 111.3 88.3 111.3 81.3Z" />
		<path id="Layer" class="shp2" d="M101.5 308.5C93.8 308.5 87.6 302.3 87.6 294.6L87.6 179.4C87.6 171.7 93.8 165.5 101.5 165.5C109.2 165.5 115.4 171.7 115.4 179.4L115.4 294.6C115.5 302.3 109.2 308.5 101.5 308.5Z" />
	</g>
</svg>